# xmcd
# 
# Track frame offsets:
#     150
#     22064
#     44110
#     64505
#     88258
#     129769
#     144837
#     168735
#     192771
#     209236
#     240668
#     261912
#     297635
#     319654
# 
# Disc length: 4514
# 
# Revision: 0
# Processed by: cddbd v1.5.2PL0 Copyright (c) Steve Scherf et al.
# Submitted via: BonkEnc v1.0.5
# 
DISCID=dc11a00e
DTITLE=Mark Knopfler and Emmylou Harris - Real Live Roadrunning
DYEAR=2006
DGENRE=Country
TTITLE0=Right Now
TTITLE1=Red Staggerwing
TTITLE2=Red Dirt Girl
TTITLE3=Done With Bonaparte
TTITLE4=Romeo And Juliet
TTITLE5=All That Matters
TTITLE6=This Is Us
TTITLE7=All The Roadrunning
TTITLE8=Boulder To Birmingham
TTITLE9=Speedway At Nazareth
TTITLE10=So Far Away
TTITLE11=Our Shangri-La
TTITLE12=If This Is Goodbye
TTITLE13=Why Worry
EXTD=
EXTT0=
EXTT1=
EXTT2=
EXTT3=
EXTT4=
EXTT5=
EXTT6=
EXTT7=
EXTT8=
EXTT9=
EXTT10=
EXTT11=
EXTT12=
EXTT13=
PLAYORDER=
